<svg xmlns="http://www.w3.org/2000/svg" viewBox="0 0 512 512">
  <path fill="#0084FF" d="M256.06 16C114.62 16 0 123.92 0 256a240 240 0 0 0 116.64 204.89c9.18 5.22 7.36 3.3 8.9 10.96 2 10.24 3.23 27.32 3.81 37.51 0 0-.78 6.45 6.13 3.67 7.78-3.29 13.06-6.14 18.05-9.96 4.72-3.61 6.63-3.33 15.33-1.3 40.53 9.49 84.1 9.38 124.45.24 18.22-4.05 36.04-10.31 53.35-17.96 6.77-3.02 12.48-5.62 18.67-8.84 6.19-3.23 5.55-8.77 5.55-8.77.58-10.16 1.65-27.07 3.66-37.34 1.52-7.61-.2-5.74 8.85-10.94A240.01 240.01 0 0 0 512 256c0-132.08-114.62-240-255.94-240zm76.4 175.76-70.98 111.73c-5.57 8.77-17.58 11.18-26.26 5.55l-59.9-39.97a14.72 14.72 0 0 0-16.94.48l-69.05 55.62c-5.94 4.79-14.57-2.67-10.75-8.93l70.91-111.66c5.58-8.77 17.58-11.18 26.25-5.55l59.92 39.97a14.72 14.72 0 0 0 16.95-.48l69.02-55.62c5.94-4.79 14.57 2.66 10.75 8.93z"/>
</svg>
