<svg xmlns="http://www.w3.org/2000/svg" viewBox="0 0 32 32">
  <path fill="#25D366" d="M16 .3c-8.5 0-15.3 6.9-15.3 15.3 0 3 1 5.9 2.7 8.3L.4 31.7l8.2-2.2c2.3 1.4 5 2.2 7.8 2.2 8.5 0 15.3-6.9 15.3-15.3C31.3 7.2 24.5.3 16 .3zm8.4 21.9c-.4 1-2 1.9-3 2-2 .2-3.6 1-11.4-4.6-3.3-2.3-4.9-5.2-5.5-6.1-.6-.8-1.3-2.4-1.3-3.8s.7-2.8 1-3.1c.4-.3.7-.4 1-.4s.5 0 .7 0c.2 0 .6-.1 1 .8.4.9 1.4 3.2 1.5 3.4.1.2.1.3 0 .5-.1.2-.2.4-.3.5-.2.2-.4.4-.5.6-.2.2-.4.4-.2.7.2.3.8 1.3 1.7 2.2 1.2 1.1 2.3 1.5 2.7 1.7.3.2.5.1.7-.1s.8-1 1-1.3c.2-.3.4-.3.7-.2.3.1 2 .9 2.3 1.1.3.2.5.2.7.3.2.1.4.4.2.8z"/>
</svg>
